<svg width="200" height="200" viewBox="0 0 200 200" xmlns="http://www.w3.org/2000/svg">
  <defs>
    <linearGradient id="primaryGradient" x1="0%" y1="0%" x2="100%" y2="100%">
      <stop offset="0%" style="stop-color:#48BB78;stop-opacity:1" />
      <stop offset="100%" style="stop-color:#38A169;stop-opacity:1" />
    </linearGradient>
    <linearGradient id="secondaryGradient" x1="0%" y1="0%" x2="100%" y2="100%">
      <stop offset="0%" style="stop-color:#4299E1;stop-opacity:1" />
      <stop offset="100%" style="stop-color:#3182CE;stop-opacity:1" />
    </linearGradient>
    <linearGradient id="accentGradient" x1="0%" y1="0%" x2="100%" y2="100%">
      <stop offset="0%" style="stop-color:#ED8936;stop-opacity:1" />
      <stop offset="100%" style="stop-color:#DD6B20;stop-opacity:1" />
    </linearGradient>
    <linearGradient id="screenGradient" x1="0%" y1="0%" x2="100%" y2="100%">
      <stop offset="0%" style="stop-color:#2D3748;stop-opacity:1" />
      <stop offset="100%" style="stop-color:#1A202C;stop-opacity:1" />
    </linearGradient>
    <radialGradient id="connectionGlow" cx="50%" cy="50%" r="50%">
      <stop offset="0%" style="stop-color:#68D391;stop-opacity:0.8" />
      <stop offset="100%" style="stop-color:#68D391;stop-opacity:0" />
    </radialGradient>
  </defs>
  
  <!-- Central Hub/Network Core -->
  <circle cx="100" cy="100" r="25" fill="url(#primaryGradient)" stroke="#2F855A" stroke-width="3"/>
  <circle cx="100" cy="100" r="15" fill="url(#screenGradient)"/>
  <circle cx="100" cy="100" r="8" fill="#68D391"/>
  
  <!-- Network Pulse Rings -->
  <circle cx="100" cy="100" r="35" fill="none" stroke="#68D391" stroke-width="1" stroke-dasharray="3,3" opacity="0.6"/>
  <circle cx="100" cy="100" r="50" fill="none" stroke="#68D391" stroke-width="1" stroke-dasharray="5,5" opacity="0.3"/>
  
  <!-- User Node 1 (Top Left) -->
  <circle cx="60" cy="60" r="18" fill="url(#secondaryGradient)" stroke="#2B6CB0" stroke-width="2"/>
  <circle cx="60" cy="60" r="10" fill="#F7FAFC"/>
  <circle cx="57" cy="57" r="3" fill="#2B6CB0"/>
  <circle cx="63" cy="57" r="3" fill="#2B6CB0"/>
  <path d="M 54 63 Q 60 67 66 63" stroke="#2B6CB0" stroke-width="1.5" fill="none"/>
  
  <!-- User Node 2 (Top Right) -->
  <circle cx="140" cy="60" r="18" fill="url(#accentGradient)" stroke="#C05621" stroke-width="2"/>
  <circle cx="140" cy="60" r="10" fill="#F7FAFC"/>
  <circle cx="137" cy="57" r="3" fill="#C05621"/>
  <circle cx="143" cy="57" r="3" fill="#C05621"/>
  <path d="M 134 63 Q 140 67 146 63" stroke="#C05621" stroke-width="1.5" fill="none"/>
  
  <!-- User Node 3 (Bottom Left) -->
  <circle cx="60" cy="140" r="18" fill="url(#primaryGradient)" stroke="#2F855A" stroke-width="2"/>
  <circle cx="60" cy="140" r="10" fill="#F7FAFC"/>
  <circle cx="57" cy="137" r="3" fill="#2F855A"/>
  <circle cx="63" cy="137" r="3" fill="#2F855A"/>
  <path d="M 54 143 Q 60 147 66 143" stroke="#2F855A" stroke-width="1.5" fill="none"/>
  
  <!-- User Node 4 (Bottom Right) -->
  <circle cx="140" cy="140" r="18" fill="url(#secondaryGradient)" stroke="#2B6CB0" stroke-width="2"/>
  <circle cx="140" cy="140" r="10" fill="#F7FAFC"/>
  <circle cx="137" cy="137" r="3" fill="#2B6CB0"/>
  <circle cx="143" cy="137" r="3" fill="#2B6CB0"/>
  <path d="M 134 143 Q 140 147 146 143" stroke="#2B6CB0" stroke-width="1.5" fill="none"/>
  
  <!-- Connection Lines with Data Flow -->
  <line x1="75" y1="75" x2="85" y2="85" stroke="#68D391" stroke-width="3" stroke-linecap="round"/>
  <circle cx="78" cy="78" r="2" fill="#68D391"/>
  <circle cx="82" cy="82" r="1.5" fill="#68D391"/>
  
  <line x1="125" y1="75" x2="115" y2="85" stroke="#68D391" stroke-width="3" stroke-linecap="round"/>
  <circle cx="122" cy="78" r="2" fill="#68D391"/>
  <circle cx="118" cy="82" r="1.5" fill="#68D391"/>
  
  <line x1="75" y1="125" x2="85" y2="115" stroke="#68D391" stroke-width="3" stroke-linecap="round"/>
  <circle cx="78" cy="122" r="2" fill="#68D391"/>
  <circle cx="82" cy="118" r="1.5" fill="#68D391"/>
  
  <line x1="125" y1="125" x2="115" y2="115" stroke="#68D391" stroke-width="3" stroke-linecap="round"/>
  <circle cx="122" cy="122" r="2" fill="#68D391"/>
  <circle cx="118" cy="118" r="1.5" fill="#68D391"/>
  
  <!-- Communication Bubbles -->
  <ellipse cx="45" cy="35" rx="20" ry="12" fill="#F7FAFC" stroke="#E2E8F0" stroke-width="1.5"/>
  <circle cx="40" cy="32" r="1.5" fill="#4299E1"/>
  <circle cx="45" cy="32" r="1.5" fill="#4299E1"/>
  <circle cx="50" cy="32" r="1.5" fill="#4299E1"/>
  <rect x="38" y="36" width="14" height="1" fill="#A0AEC0"/>
  <rect x="38" y="38" width="10" height="1" fill="#A0AEC0"/>
  <polygon points="35,47 32,52 38,52" fill="#F7FAFC" stroke="#E2E8F0" stroke-width="1"/>
  
  <ellipse cx="155" cy="35" rx="22" ry="12" fill="#F7FAFC" stroke="#E2E8F0" stroke-width="1.5"/>
  <path d="M 145 30 L 148 33 L 152 29" stroke="#38A169" stroke-width="2" fill="none" stroke-linecap="round"/>
  <rect x="145" y="36" width="20" height="1" fill="#A0AEC0"/>
  <rect x="145" y="38" width="15" height="1" fill="#A0AEC0"/>
  <polygon points="165,47 168,52 162,52" fill="#F7FAFC" stroke="#E2E8F0" stroke-width="1"/>
  
  <!-- Collaboration Tools Dashboard -->
  <rect x="20" y="160" width="35" height="25" rx="4" fill="url(#screenGradient)" stroke="#4A5568" stroke-width="1"/>
  <rect x="22" y="162" width="31" height="3" rx="1" fill="#4299E1"/>
  <rect x="22" y="167" width="12" height="2" rx="1" fill="#68D391"/>
  <rect x="36" y="167" width="8" height="2" rx="1" fill="#ED8936"/>
  <rect x="46" y="167" width="5" height="2" rx="1" fill="#9F7AEA"/>
  <rect x="22" y="171" width="20" height="1" fill="#A0AEC0"/>
  <rect x="22" y="173" width="15" height="1" fill="#A0AEC0"/>
  <rect x="22" y="175" width="25" height="1" fill="#A0AEC0"/>
  <rect x="22" y="177" width="18" height="1" fill="#A0AEC0"/>
  <rect x="22" y="179" width="12" height="1" fill="#A0AEC0"/>
  <rect x="22" y="181" width="22" height="1" fill="#A0AEC0"/>
  
  <!-- Project Management Board -->
  <rect x="145" y="160" width="35" height="25" rx="4" fill="url(#screenGradient)" stroke="#4A5568" stroke-width="1"/>
  <rect x="147" y="162" width="31" height="3" rx="1" fill="#ED8936"/>
  <rect x="149" y="167" width="8" height="4" rx="1" fill="#4299E1"/>
  <rect x="159" y="167" width="8" height="4" rx="1" fill="#38A169"/>
  <rect x="169" y="167" width="6" height="4" rx="1" fill="#9F7AEA"/>
  <rect x="149" y="173" width="6" height="3" rx="1" fill="#68D391"/>
  <rect x="157" y="173" width="10" height="3" rx="1" fill="#F56565"/>
  <rect x="169" y="173" width="4" height="3" rx="1" fill="#4299E1"/>
  <rect x="149" y="178" width="12" height="2" rx="1" fill="#ED8936"/>
  <rect x="163" y="178" width="8" height="2" rx="1" fill="#38A169"/>
  
  <!-- Knowledge Base -->
  <rect x="80" y="165" width="40" height="20" rx="3" fill="#F7FAFC" stroke="#E2E8F0" stroke-width="1.5"/>
  <rect x="82" y="167" width="36" height="3" rx="1" fill="#4299E1"/>
  <rect x="82" y="172" width="20" height="1" fill="#2D3748"/>
  <rect x="82" y="174" width="25" height="1" fill="#2D3748"/>
  <rect x="82" y="176" width="18" height="1" fill="#2D3748"/>
  <rect x="82" y="178" width="30" height="1" fill="#2D3748"/>
  <rect x="82" y="180" width="15" height="1" fill="#2D3748"/>
  <circle cx="115" cy="175" r="3" fill="#38A169"/>
  <path d="M 113 175 L 115 177 L 118 173" stroke="#F7FAFC" stroke-width="1" fill="none"/>
  
  <!-- Notification Indicators -->
  <circle cx="70" cy="50" r="4" fill="#E53E3E"/>
  <circle cx="70" cy="50" r="2" fill="#F7FAFC"/>
  <circle cx="130" cy="50" r="4" fill="#38A169"/>
  <circle cx="130" cy="50" r="2" fill="#F7FAFC"/>
  <circle cx="70" cy="150" r="4" fill="#4299E1"/>
  <circle cx="70" cy="150" r="2" fill="#F7FAFC"/>
  <circle cx="130" cy="150" r="4" fill="#ED8936"/>
  <circle cx="130" cy="150" r="2" fill="#F7FAFC"/>
  
  <!-- Data Streams -->
  <path d="M 30 100 Q 50 90 70 100" stroke="#68D391" stroke-width="1" fill="none" stroke-dasharray="2,2"/>
  <path d="M 170 100 Q 150 90 130 100" stroke="#68D391" stroke-width="1" fill="none" stroke-dasharray="2,2"/>
  <path d="M 100 30 Q 90 50 100 70" stroke="#68D391" stroke-width="1" fill="none" stroke-dasharray="2,2"/>
  <path d="M 100 170 Q 90 150 100 130" stroke="#68D391" stroke-width="1" fill="none" stroke-dasharray="2,2"/>
  
  <!-- Activity Indicators -->
  <circle cx="100" cy="100" r="3" fill="#68D391">
    <animate attributeName="opacity" values="0.3;1;0.3" dur="2s" repeatCount="indefinite"/>
  </circle>
</svg>