<svg width="200" height="200" viewBox="0 0 200 200" xmlns="http://www.w3.org/2000/svg">
  <defs>
    <linearGradient id="printerGradient" x1="0%" y1="0%" x2="100%" y2="100%">
      <stop offset="0%" style="stop-color:#667EEA;stop-opacity:1" />
      <stop offset="100%" style="stop-color:#764BA2;stop-opacity:1" />
    </linearGradient>
    <linearGradient id="frameGradient" x1="0%" y1="0%" x2="100%" y2="100%">
      <stop offset="0%" style="stop-color:#4A5568;stop-opacity:1" />
      <stop offset="100%" style="stop-color:#2D3748;stop-opacity:1" />
    </linearGradient>
    <linearGradient id="headGradient" x1="0%" y1="0%" x2="100%" y2="100%">
      <stop offset="0%" style="stop-color:#F56565;stop-opacity:1" />
      <stop offset="100%" style="stop-color:#E53E3E;stop-opacity:1" />
    </linearGradient>
    <linearGradient id="bedGradient" x1="0%" y1="0%" x2="100%" y2="100%">
      <stop offset="0%" style="stop-color:#A0AEC0;stop-opacity:1" />
      <stop offset="100%" style="stop-color:#718096;stop-opacity:1" />
    </linearGradient>
    <radialGradient id="filamentGradient" cx="50%" cy="50%" r="50%">
      <stop offset="0%" style="stop-color:#FBD38D;stop-opacity:1" />
      <stop offset="100%" style="stop-color:#ED8936;stop-opacity:1" />
    </radialGradient>
  </defs>
  
  <!-- Base/Electronics Box -->
  <rect x="40" y="140" width="120" height="40" rx="8" fill="url(#printerGradient)" stroke="#553C9A" stroke-width="2"/>
  
  <!-- Base Details -->
  <rect x="45" y="145" width="25" height="8" rx="2" fill="#2D3748"/>
  <rect x="75" y="145" width="50" height="8" rx="2" fill="#1A202C"/>
  <circle cx="155" cy="155" r="4" fill="#38A169"/>
  <circle cx="145" cy="155" r="4" fill="#E53E3E"/>
  <rect x="48" y="155" width="40" height="20" rx="3" fill="#1A202C"/>
  <rect x="50" y="157" width="36" height="8" rx="1" fill="#4A5568"/>
  
  <!-- Vertical Frame Posts -->
  <rect x="45" y="60" width="12" height="85" rx="2" fill="url(#frameGradient)"/>
  <rect x="143" y="60" width="12" height="85" rx="2" fill="url(#frameGradient)"/>
  
  <!-- Top Frame -->
  <rect x="45" y="60" width="110" height="12" rx="3" fill="url(#frameGradient)"/>
  
  <!-- Z-axis Lead Screws -->
  <rect x="50" y="65" width="2" height="75" fill="#A0AEC0"/>
  <rect x="148" y="65" width="2" height="75" fill="#A0AEC0"/>
  
  <!-- X-axis Rail -->
  <rect x="55" y="85" width="90" height="6" rx="3" fill="url(#frameGradient)"/>
  
  <!-- Print Bed -->
  <rect x="60" y="125" width="80" height="8" rx="4" fill="url(#bedGradient)" stroke="#4A5568" stroke-width="1"/>
  
  <!-- Bed Surface -->
  <rect x="65" y="122" width="70" height="3" rx="1" fill="#E2E8F0"/>
  
  <!-- Print Head Assembly -->
  <rect x="85" y="75" width="30" height="18" rx="4" fill="url(#headGradient)" stroke="#C53030" stroke-width="1"/>
  
  <!-- Hotend -->
  <rect x="95" y="93" width="10" height="20" rx="2" fill="#2D3748"/>
  <rect x="97" y="113" width="6" height="8" rx="1" fill="#A0AEC0"/>
  
  <!-- Print Head Details -->
  <rect x="88" y="78" width="6" height="4" rx="1" fill="#1A202C"/>
  <rect x="106" y="78" width="6" height="4" rx="1" fill="#1A202C"/>
  <circle cx="100" cy="85" r="2" fill="#4A5568"/>
  
  <!-- Extruded Filament -->
  <line x1="100" y1="121" x2="100" y2="122" stroke="#FBD38D" stroke-width="3" stroke-linecap="round"/>
  <circle cx="100" cy="121" r="2" fill="#FBD38D"/>
  
  <!-- Printed Object (small part) -->
  <rect x="92" y="117" width="16" height="8" rx="2" fill="#38A169" stroke="#2F855A" stroke-width="1"/>
  <rect x="95" y="115" width="10" height="2" rx="1" fill="#68D391"/>
  
  <!-- Print Lines on Object -->
  <line x1="94" y1="119" x2="106" y2="119" stroke="#2F855A" stroke-width="0.5"/>
  <line x1="94" y1="121" x2="106" y2="121" stroke="#2F855A" stroke-width="0.5"/>
  <line x1="94" y1="123" x2="106" y2="123" stroke="#2F855A" stroke-width="0.5"/>
  
  <!-- Filament Spool -->
  <circle cx="170" cy="90" r="18" fill="url(#filamentGradient)" stroke="#D69E2E" stroke-width="2"/>
  <circle cx="170" cy="90" r="12" fill="none" stroke="#D69E2E" stroke-width="2"/>
  <circle cx="170" cy="90" r="6" fill="none" stroke="#D69E2E" stroke-width="1"/>
  <circle cx="170" cy="90" r="3" fill="#D69E2E"/>
  
  <!-- Filament Line -->
  <path d="M 152 90 Q 130 85 115 85" stroke="#FBD38D" stroke-width="2" fill="none"/>
  
  <!-- Bowden Tube -->
  <path d="M 115 85 Q 105 82 100 78" stroke="#F7FAFC" stroke-width="3" fill="none"/>
  
  <!-- Side Panel Vents -->
  <rect x="42" y="65" width="1" height="8" fill="#2D3748"/>
  <rect x="42" y="75" width="1" height="8" fill="#2D3748"/>
  <rect x="42" y="85" width="1" height="8" fill="#2D3748"/>
  <rect x="42" y="95" width="1" height="8" fill="#2D3748"/>
  
  <rect x="157" y="65" width="1" height="8" fill="#2D3748"/>
  <rect x="157" y="75" width="1" height="8" fill="#2D3748"/>
  <rect x="157" y="85" width="1" height="8" fill="#2D3748"/>
  <rect x="157" y="95" width="1" height="8" fill="#2D3748"/>
  
  <!-- Control Knob -->
  <circle cx="165" cy="160" r="6" fill="#4A5568" stroke="#2D3748" stroke-width="1"/>
  <circle cx="165" cy="160" r="3" fill="#A0AEC0"/>
  <line x1="165" y1="157" x2="165" y2="160" stroke="#2D3748" stroke-width="1"/>
  
  <!-- Power Switch -->
  <rect x="125" y="157" width="12" height="6" rx="3" fill="#2D3748"/>
  <rect x="127" y="159" width="3" height="2" rx="1" fill="#38A169"/>
  
  <!-- Cable Management -->
  <path d="M 155 140 Q 165 130 175 140" stroke="#1A202C" stroke-width="2" fill="none"/>
</svg>